<svg xmlns="http://www.w3.org/2000/svg" xmlns:xlink="http://www.w3.org/1999/xlink">
    <g id="product-11153690-5ed2-11ea-a515-abaaebf1a1a3">
        <g id="product-product-11155f80-5ed2-11ea-a515-abaaebf1a1a3-body">
            <path style="stroke:black; fill:none;" d="M0.834376,3.67126 L0.834376,53.2749 L3.33067e-16,53.2749 L3.88578e-16,3.67126 L0.834376,3.67126"/>
        </g>
        <g id="product-product-1115963a-5ed2-11ea-a515-abaaebf1a1a3-body">
            <path style="stroke:black; fill:none;" d="M0.834376,66.0826 L0.834376,96.3287 L3.33067e-16,96.3287 L3.88578e-16,66.0826 L0.834376,66.0826"/>
        </g>
        <g id="product-product-1115ca7e-5ed2-11ea-a515-abaaebf1a1a3-body">
            <path style="stroke:black; fill:none;" d="M15.436,1.66875 L15.436,25.9074 L14.6016,25.9074 L14.6016,1.66875 L15.436,1.66875"/>
        </g>
        <g id="product-product-1115fe18-5ed2-11ea-a515-abaaebf1a1a3-body">
            <path style="stroke:black; fill:none;" d="M23.7797,47.7263 L23.7797,99.6662 L22.9453,99.6662 L22.9453,47.7263 L23.7797,47.7263"/>
        </g>
        <g id="product-product-111632a2-5ed2-11ea-a515-abaaebf1a1a3-body">
            <path style="stroke:black; fill:none;" d="M30.0375,31.0805 L30.0375,70.63 L29.2032,70.63 L29.2032,31.0805 L30.0375,31.0805"/>
        </g>
        <g id="product-product-11166754-5ed2-11ea-a515-abaaebf1a1a3-body">
            <path style="stroke:black; fill:none;" d="M32.1235,23.3625 L32.1235,36.2537 L31.2891,36.2537 L31.2891,23.3625 L32.1235,23.3625"/>
        </g>
        <g id="product-product-11169a6c-5ed2-11ea-a515-abaaebf1a1a3-body">
            <path style="stroke:black; fill:none;" d="M32.1235,73.0914 L32.1235,99.6662 L31.2891,99.6662 L31.2891,73.0914 L32.1235,73.0914"/>
        </g>
        <g id="product-product-1116cdc0-5ed2-11ea-a515-abaaebf1a1a3-body">
            <path style="stroke:black; fill:none;" d="M42.5532,31.3725 L42.5532,51.2724 L41.7188,51.2724 L41.7188,31.3725 L42.5532,31.3725"/>
        </g>
        <g id="product-product-11170146-5ed2-11ea-a515-abaaebf1a1a3-body">
            <path style="stroke:black; fill:none;" d="M42.5532,50.7301 L42.5532,70.63 L41.7188,70.63 L41.7188,50.7301 L42.5532,50.7301"/>
        </g>
        <g id="product-product-1117363e-5ed2-11ea-a515-abaaebf1a1a3-body">
            <path style="stroke:black; fill:none;" d="M48.811,0 L48.811,27.2424 L47.9766,27.2424 L47.9766,8.32667e-16 L48.811,0"/>
        </g>
        <g id="product-product-11176b36-5ed2-11ea-a515-abaaebf1a1a3-body">
            <path style="stroke:black; fill:none;" d="M52.9829,31.3725 L52.9829,58.2812 L52.1485,58.2812 L52.1485,31.3725 L52.9829,31.3725"/>
        </g>
        <g id="product-product-11179e76-5ed2-11ea-a515-abaaebf1a1a3-body">
            <path style="stroke:black; fill:none;" d="M63.4126,2.0025 L63.4126,28.5774 L62.5782,28.5774 L62.5782,2.0025 L63.4126,2.0025"/>
        </g>
        <g id="product-product-1117d0ee-5ed2-11ea-a515-abaaebf1a1a3-body">
            <path style="stroke:black; fill:none;" d="M65.4985,31.3725 L65.4985,70.9637 L64.6642,70.9637 L64.6642,31.3725 L65.4985,31.3725"/>
        </g>
        <g id="product-product-1118032a-5ed2-11ea-a515-abaaebf1a1a3-body">
            <path style="stroke:black; fill:none;" d="M73.8423,23.3625 L73.8423,100 L73.0079,100 L73.0079,23.3625 L73.8423,23.3625"/>
        </g>
        <g id="product-product-11183638-5ed2-11ea-a515-abaaebf1a1a3-body">
            <path style="stroke:black; fill:none;" d="M94.7017,4.00501 L94.7017,27.2424 L93.8673,27.2424 L93.8673,4.00501 L94.7017,4.00501"/>
        </g>
        <g id="product-product-111867ca-5ed2-11ea-a515-abaaebf1a1a3-body">
            <path style="stroke:black; fill:none;" d="M0.625782,2.04422 L46.2244,2.04422 L46.2244,2.8786 L0.625782,2.8786 L0.625782,2.04422"/>
        </g>
        <g id="product-product-111899d4-5ed2-11ea-a515-abaaebf1a1a3-body">
            <path style="stroke:black; fill:none;" d="M45.7238,2.04422 L63.496,2.04422 L63.496,2.8786 L45.7238,2.8786 L45.7238,2.04422"/>
        </g>
        <g id="product-product-1118cf1c-5ed2-11ea-a515-abaaebf1a1a3-body">
            <path style="stroke:black; fill:none;" d="M55.0271,4.13016 L95.2858,4.13016 L95.2858,4.96454 L55.0271,4.96454 L55.0271,4.13016"/>
        </g>
        <g id="product-product-11190310-5ed2-11ea-a515-abaaebf1a1a3-body">
            <path style="stroke:black; fill:none;" d="M47.3509,18.7317 L59.9082,18.7317 L59.9082,19.5661 L47.3509,19.5661 L47.3509,18.7317"/>
        </g>
        <g id="product-product-11193722-5ed2-11ea-a515-abaaebf1a1a3-body">
            <path style="stroke:black; fill:none;" d="M3.88578e-16,24.9896 L21.1932,24.9896 L21.1932,25.8239 L0,25.8239 L3.88578e-16,24.9896"/>
        </g>
        <g id="product-product-111968fa-5ed2-11ea-a515-abaaebf1a1a3-body">
            <path style="stroke:black; fill:none;" d="M24.9896,24.9896 L51.2307,24.9896 L51.2307,25.8239 L24.9896,25.8239 L24.9896,24.9896"/>
        </g>
        <g id="product-product-11199ad2-5ed2-11ea-a515-abaaebf1a1a3-body">
            <path style="stroke:black; fill:none;" d="M52.6909,24.9896 L95.6195,24.9896 L95.6195,25.8239 L52.6909,25.8239 L52.6909,24.9896"/>
        </g>
        <g id="product-product-1119cd0e-5ed2-11ea-a515-abaaebf1a1a3-body">
            <path style="stroke:black; fill:none;" d="M27.3258,33.3333 L66.5832,33.3333 L66.5832,34.1677 L27.3258,34.1677 L27.3258,33.3333"/>
        </g>
        <g id="product-product-1119ff0e-5ed2-11ea-a515-abaaebf1a1a3-body">
            <path style="stroke:black; fill:none;" d="M50.3546,45.849 L66.5832,45.849 L66.5832,46.6834 L50.3546,46.6834 L50.3546,45.849"/>
        </g>
        <g id="product-product-111a3230-5ed2-11ea-a515-abaaebf1a1a3-body">
            <path style="stroke:black; fill:none;" d="M50.3546,50.0209 L66.5832,50.0209 L66.5832,50.8552 L50.3546,50.8552 L50.3546,50.0209"/>
        </g>
        <g id="product-product-111a6408-5ed2-11ea-a515-abaaebf1a1a3-body">
            <path style="stroke:black; fill:none;" d="M3.88578e-16,52.1068 L31.8732,52.1068 L31.8732,52.9412 L0,52.9412 L3.88578e-16,52.1068"/>
        </g>
        <g id="product-product-111a961c-5ed2-11ea-a515-abaaebf1a1a3-body">
            <path style="stroke:black; fill:none;" d="M41.0096,56.2787 L55.9032,56.2787 L55.9032,57.1131 L41.0096,57.1131 L41.0096,56.2787"/>
        </g>
        <g id="product-product-111ac808-5ed2-11ea-a515-abaaebf1a1a3-body">
            <path style="stroke:black; fill:none;" d="M3.88578e-16,66.7084 L24.5307,66.7084 L24.5307,67.5428 L0,67.5428 L3.88578e-16,66.7084"/>
        </g>
        <g id="product-product-111afa26-5ed2-11ea-a515-abaaebf1a1a3-body">
            <path style="stroke:black; fill:none;" d="M27.3258,68.7943 L66.5832,68.7943 L66.5832,69.6287 L27.3258,69.6287 L27.3258,68.7943"/>
        </g>
        <g id="product-product-111b2db6-5ed2-11ea-a515-abaaebf1a1a3-body">
            <path style="stroke:black; fill:none;" d="M34.6683,77.1381 L74.5932,77.1381 L74.5932,77.9725 L34.6683,77.9725 L34.6683,77.1381"/>
        </g>
        <g id="product-product-111b6114-5ed2-11ea-a515-abaaebf1a1a3-body">
            <path style="stroke:black; fill:none;" d="M1.62703,97.9975 L74.2595,97.9975 L74.2595,98.8319 L1.62703,98.8319 L1.62703,97.9975"/>
        </g>
    </g>
</svg>
